<svg width="34" height="34" viewBox="0 0 34 34" fill="none" xmlns="http://www.w3.org/2000/svg">
<rect x="0.5" y="0.5" width="33" height="33" rx="9.5" stroke="#DBDBDB"/>
<path d="M20.0625 21.375H13.9375C12.0037 21.375 10.4375 19.8088 10.4375 17.875V17.4375C10.4375 15.7488 11.8113 14.375 13.5 14.375C13.745 14.375 13.9375 14.5675 13.9375 14.8125C13.9375 15.0575 13.745 15.25 13.5 15.25C12.2925 15.25 11.3125 16.23 11.3125 17.4375V17.875C11.3125 19.3187 12.4938 20.5 13.9375 20.5H20.0625C21.5063 20.5 22.6875 19.3187 22.6875 17.875C22.6875 16.4313 21.5063 15.25 20.0625 15.25H18.1375C17.8925 15.25 17.7 15.0575 17.7 14.8125C17.7 14.5675 17.8925 14.375 18.1375 14.375H20.0625C21.9963 14.375 23.5625 15.9412 23.5625 17.875C23.5625 19.8088 21.9963 21.375 20.0625 21.375Z" fill="#717274"/>
<path d="M19.1875 17C19.0912 17 18.995 16.965 18.9162 16.9037L16.7288 15.1537C16.6238 15.0662 16.5625 14.9437 16.5625 14.8125C16.5625 14.6812 16.6238 14.55 16.7288 14.4712L18.9162 12.7212C19.1087 12.5725 19.38 12.5987 19.5288 12.7912C19.6775 12.9837 19.6513 13.255 19.4588 13.4037L17.7 14.8125L19.4588 16.2212C19.6513 16.37 19.6775 16.65 19.5288 16.8337C19.4413 16.9387 19.3187 17 19.1875 17Z" fill="#717274"/>
</svg>
