<svg width="26" height="26" viewBox="0 0 26 26" fill="none" xmlns="http://www.w3.org/2000/svg">
<path d="M25.3825 13.3412C25.0412 13.3412 24.765 13.065 24.765 12.7237V4.14375C24.765 3.62375 24.31 3.16875 23.79 3.16875H8.22248C7.88123 3.16875 7.60498 2.8925 7.60498 2.55125C7.60498 2.21 7.88123 1.93375 8.22248 1.93375H23.79C24.9925 1.93375 26 2.94125 26 4.14375V12.7237C26 13.065 25.7237 13.3412 25.3825 13.3412Z" fill="#E51058"/>
<path d="M23.0588 16.3962C22.7175 16.3962 22.4413 16.12 22.4413 15.7787V6.71125C22.4413 6.0775 21.97 5.60625 21.3363 5.60625H4.90754C4.56629 5.60625 4.29004 5.33 4.29004 4.98875C4.29004 4.6475 4.56629 4.37125 4.90754 4.37125H21.3363C22.6688 4.37125 23.66 5.37875 23.66 6.695V15.7625C23.66 16.1037 23.3838 16.38 23.0425 16.38L23.0588 16.3962Z" fill="#E51058"/>
<path d="M6.0125 24.375C5.67125 24.375 5.28125 24.0988 5.28125 23.7575V20.3288H2.32375C0.99125 20.3288 0 19.3213 0 18.005V8.92125C0 7.58875 1.0075 6.5975 2.32375 6.5975H18.7687C20.1012 6.5975 21.0925 7.605 21.0925 8.92125V17.875C21.1737 17.9725 21.2225 18.1025 21.2225 18.2488C21.2225 19.5813 20.215 20.5725 18.8987 20.5725H9.83125L6.4675 24.18C6.35375 24.31 6.19125 24.375 6.0125 24.375ZM2.32375 7.81625C1.69 7.81625 1.21875 8.2875 1.21875 8.92125V17.9888C1.21875 18.6225 1.69 19.0938 2.32375 19.0938H5.395C5.98 19.0938 6.5 19.6138 6.5 20.1988V22.3275L9.0025 19.6463C9.3275 19.3213 9.6525 19.3213 9.815 19.3213H18.8825C19.4187 19.3213 19.825 18.9963 19.955 18.525C19.9062 18.4275 19.8737 18.33 19.8737 18.2163V8.92125C19.8737 8.2875 19.4025 7.81625 18.7687 7.81625H2.32375Z" fill="#E51058"/>
</svg>
