<svg width="34" height="34" viewBox="0 0 34 34" fill="none" xmlns="http://www.w3.org/2000/svg">
<rect x="0.5" y="0.5" width="33" height="33" rx="9.5" stroke="#DBDBDB"/>
<g clip-path="url(#clip0_1_2480)">
<path d="M15.25 20.9375C15.005 20.9375 14.8125 20.745 14.8125 20.5V15.25C14.8125 15.005 15.005 14.8125 15.25 14.8125C15.495 14.8125 15.6875 15.005 15.6875 15.25V20.5C15.6875 20.745 15.495 20.9375 15.25 20.9375Z" fill="#717274"/>
<path d="M18.75 20.9375C18.505 20.9375 18.3125 20.745 18.3125 20.5V15.25C18.3125 15.005 18.505 14.8125 18.75 14.8125C18.995 14.8125 19.1875 15.005 19.1875 15.25V20.5C19.1875 20.745 18.995 20.9375 18.75 20.9375Z" fill="#717274"/>
<path d="M19.625 12.625H14.375V11.3125C14.375 10.5863 14.9613 10 15.6875 10H18.3125C19.0388 10 19.625 10.5863 19.625 11.3125V12.625ZM15.25 11.75H18.75V11.3125C18.75 11.0675 18.5575 10.875 18.3125 10.875H15.6875C15.4425 10.875 15.25 11.0675 15.25 11.3125V11.75Z" fill="#717274"/>
<path d="M20.0625 24H13.9375C12.975 24 12.1875 23.2125 12.1875 22.25V12.625C12.1875 12.38 12.38 12.1875 12.625 12.1875C12.87 12.1875 13.0625 12.38 13.0625 12.625V22.25C13.0625 22.7312 13.4562 23.125 13.9375 23.125H20.0625C20.5437 23.125 20.9375 22.7312 20.9375 22.25V12.625C20.9375 12.38 21.13 12.1875 21.375 12.1875C21.62 12.1875 21.8125 12.38 21.8125 12.625V22.25C21.8125 23.2125 21.025 24 20.0625 24Z" fill="#717274"/>
<path d="M22.6875 12.625H11.3125C11.0675 12.625 10.875 12.4325 10.875 12.1875C10.875 11.9425 11.0675 11.75 11.3125 11.75H22.6875C22.9325 11.75 23.125 11.9425 23.125 12.1875C23.125 12.4325 22.9325 12.625 22.6875 12.625Z" fill="#717274"/>
</g>
<defs>
<clipPath id="clip0_1_2480">
<rect width="14" height="14" fill="white" transform="translate(10 10)"/>
</clipPath>
</defs>
</svg>
