<svg width="34" height="34" viewBox="0 0 34 34" fill="none" xmlns="http://www.w3.org/2000/svg">
<rect x="0.5" y="0.5" width="33" height="33" rx="9.5" stroke="#DBDBDB"/>
<g clip-path="url(#clip0_1_2693)">
<path d="M23.2913 24H10.7088C10.4988 24 10.3063 23.895 10.1925 23.72C10.0788 23.545 10.0613 23.3263 10.1488 23.1338L11.7413 19.5463C11.8375 19.3275 12.0563 19.1788 12.3013 19.1788H13.9375C14.1825 19.1788 14.375 19.3713 14.375 19.6163C14.375 19.8612 14.1825 20.0537 13.9375 20.0537H12.4763L11.1113 23.1162H22.8888L21.5238 20.0537H20.0625C19.8175 20.0537 19.625 19.8612 19.625 19.6163C19.625 19.3713 19.8175 19.1788 20.0625 19.1788H21.6988C21.9438 19.1788 22.1625 19.3188 22.2588 19.5463L23.8513 23.1338C23.9388 23.3263 23.9213 23.545 23.8075 23.72C23.6938 23.895 23.5013 24 23.2913 24Z" fill="#717274"/>
<path d="M17 15.6875C16.0375 15.6875 15.25 14.9 15.25 13.9375C15.25 12.975 16.0375 12.1875 17 12.1875C17.9625 12.1875 18.75 12.975 18.75 13.9375C18.75 14.9 17.9625 15.6875 17 15.6875ZM17 13.0625C16.5187 13.0625 16.125 13.4562 16.125 13.9375C16.125 14.4188 16.5187 14.8125 17 14.8125C17.4813 14.8125 17.875 14.4188 17.875 13.9375C17.875 13.4562 17.4813 13.0625 17 13.0625Z" fill="#717274"/>
<path d="M17 21.48L16.65 21.0075C16.1425 20.325 15.3988 19.2837 14.7075 18.19C14.2175 17.4112 13.8325 16.72 13.5613 16.1425C13.2288 15.4338 13.0625 14.8737 13.0625 14.48C12.7475 12.6862 13.9638 10.735 15.7138 10.2013C16.5713 9.93875 17.4813 9.93 18.2775 10.1663C19.0825 10.4112 19.8088 10.9975 20.3163 11.8112C20.8238 12.6337 21.0425 13.57 20.9288 14.4538V14.48C20.9288 14.8475 20.7625 15.4075 20.43 16.1163C20.1588 16.6937 19.7738 17.385 19.2838 18.1637C18.5925 19.2662 17.84 20.3075 17.3413 20.9812L16.9913 21.4537L17 21.48ZM17.0788 10.8837C16.7113 10.8837 16.335 10.9362 15.9675 11.05C14.6463 11.4525 13.6838 12.9838 13.92 14.3225V14.4363C13.9288 14.5938 13.9725 14.9613 14.3488 15.7663C14.6025 16.3175 14.97 16.9737 15.4425 17.7262C15.9675 18.5662 16.5363 19.38 17 20.01C17.455 19.38 18.0238 18.5662 18.5575 17.7262C19.03 16.9737 19.3975 16.3175 19.6513 15.7663C20.0275 14.9613 20.0625 14.5938 20.0625 14.4713V14.3575C20.1588 13.6838 19.975 12.9225 19.5813 12.2838C19.1875 11.6537 18.6275 11.19 18.0325 11.015C17.735 10.9275 17.4113 10.8837 17.0788 10.8837Z" fill="#717274"/>
</g>
<defs>
<clipPath id="clip0_1_2693">
<rect width="14" height="14" fill="white" transform="translate(10 10)"/>
</clipPath>
</defs>
</svg>
